<?xml version="1.0" encoding="utf-8"?>
<!-- Generator: Adobe Illustrator 26.1.0, SVG Export Plug-In . SVG Version: 6.00 Build 0)  -->
<svg version="1.1" xmlns="http://www.w3.org/2000/svg" xmlns:xlink="http://www.w3.org/1999/xlink" x="0px" y="0px"
	 viewBox="0 0 1083.7 259.5" style="enable-background:new 0 0 1083.7 259.5;" xml:space="preserve">
<style type="text/css">
	.st0{fill:#FFFFFF;}
	.st1{display:none;}
</style>
<g id="Ebene_1">
	<rect class="st0" width="308" height="26.7"/>
	<g>
		<path class="st0" d="M63.4,202.7l-36-117.2h-0.9c1.3,23.8,1.9,39.7,1.9,47.7v69.5H0.2V53.3h43.1l35.4,114.2h0.6l37.5-114.2h43.1
			v149.4h-29.5V132c0-3.3,0.1-7.2,0.2-11.5c0.1-4.4,0.6-15.9,1.4-34.7H131l-38.5,117H63.4z"/>
		<path class="st0" d="M197.5,53.3H244c21.2,0,36.6,3,46.1,9c9.6,6,14.4,15.6,14.4,28.8c0,8.9-2.1,16.2-6.3,22
			c-4.2,5.7-9.8,9.2-16.7,10.3v1c9.5,2.1,16.3,6.1,20.5,11.9c4.2,5.8,6.3,13.5,6.3,23.1c0,13.6-4.9,24.2-14.8,31.9
			c-9.8,7.6-23.2,11.4-40.1,11.4h-55.9V53.3z M229.2,112.4h18.4c8.6,0,14.8-1.3,18.6-4c3.8-2.7,5.8-7,5.8-13.2
			c0-5.7-2.1-9.8-6.3-12.3c-4.2-2.5-10.8-3.7-19.9-3.7h-16.7V112.4z M229.2,137.6v38.9h20.6c8.7,0,15.2-1.7,19.3-5
			c4.2-3.3,6.2-8.4,6.2-15.3c0-12.4-8.9-18.6-26.6-18.6H229.2z"/>
	</g>
	<rect y="232.9" class="st0" width="308" height="26.7"/>
	<g>
		<path class="st0" d="M475.4,94.8l-25.1-62.3h-0.4c0.2,3.8,0.4,7.7,0.4,11.7v50.5h-4.5V27.4h7.3L477,86.7h0.3l23.9-59.3h7.1v67.4
			h-4.8V43.7c0-3.6,0.2-7.3,0.6-11.1h-0.4l-25.2,62.2H475.4z"/>
		<path class="st0" d="M584,61c0,10.7-2.7,19.2-8,25.4s-12.7,9.3-22.1,9.3c-9.4,0-16.7-3.1-22.1-9.3c-5.3-6.2-8-14.7-8-25.5
			c0-10.7,2.7-19.2,8.1-25.3c5.4-6.2,12.8-9.2,22.1-9.2c9.4,0,16.8,3.1,22.1,9.3C581.3,41.8,584,50.3,584,61z M528.8,61
			c0,9.7,2.2,17.1,6.5,22.4c4.3,5.3,10.5,7.9,18.5,7.9c8.1,0,14.3-2.6,18.6-7.8c4.3-5.2,6.4-12.7,6.4-22.5c0-9.7-2.1-17.2-6.4-22.3
			c-4.3-5.2-10.5-7.8-18.5-7.8c-8,0-14.2,2.6-18.6,7.8C531,44,528.8,51.4,528.8,61z"/>
		<path class="st0" d="M604.2,65.4v29.4h-4.7V27.4h16c8.4,0,14.5,1.5,18.5,4.6c4,3.1,6,7.7,6,14c0,4.5-1.2,8.3-3.6,11.4
			c-2.4,3.1-6,5.3-10.9,6.7l18.3,30.7h-5.6l-17.4-29.4H604.2z M604.2,61.4H617c5.7,0,10.1-1.3,13.2-3.8c3.1-2.5,4.7-6.3,4.7-11.2
			c0-5.1-1.5-8.9-4.6-11.2c-3.1-2.3-8.1-3.5-15-3.5h-11.2V61.4z"/>
		<path class="st0" d="M655.6,94.8V27.4h4.7v67.4H655.6z"/>
		<path class="st0" d="M697,94.8h-4.8v-63h-21.9v-4.4h48.6v4.4H697V94.8z"/>
		<path class="st0" d="M770,94.8h-46.9v-3.5l39.5-59.5h-37.7v-4.4h44v3.5l-39.6,59.5H770V94.8z"/>
		<path class="st0" d="M807.8,27.4h18.5c8.3,0,14.5,1.4,18.4,4.2c3.9,2.8,5.9,7.1,5.9,12.8c0,3.9-1.2,7.2-3.6,9.8
			c-2.4,2.6-5.9,4.3-10.4,5v0.3c5.4,0.8,9.3,2.5,11.9,5.1c2.5,2.6,3.8,6.2,3.8,10.9c0,6.2-2.1,11-6.2,14.3c-4.1,3.4-10,5-17.5,5
			h-20.7V27.4z M812.5,57.4h14.8c6.3,0,10.9-1.1,13.8-3.2c2.9-2.1,4.3-5.4,4.3-9.9c0-4.5-1.6-7.7-4.9-9.8c-3.2-2-8.1-3-14.5-3h-13.6
			V57.4z M812.5,61.6v29.1h15.9c12.5,0,18.7-5.1,18.7-15.2c0-9.3-6.6-13.9-19.7-13.9H812.5z"/>
		<path class="st0" d="M871.7,65.4v29.4H867V27.4h16c8.4,0,14.5,1.5,18.5,4.6c4,3.1,6,7.7,6,14c0,4.5-1.2,8.3-3.6,11.4
			c-2.4,3.1-6,5.3-10.9,6.7l18.3,30.7h-5.6l-17.4-29.4H871.7z M871.7,61.4h12.9c5.7,0,10.1-1.3,13.2-3.8c3.1-2.5,4.7-6.3,4.7-11.2
			c0-5.1-1.5-8.9-4.6-11.2c-3.1-2.3-8.1-3.5-15-3.5h-11.2V61.4z"/>
		<path class="st0" d="M979.9,61c0,10.7-2.7,19.2-8,25.4s-12.7,9.3-22.1,9.3c-9.4,0-16.7-3.1-22.1-9.3c-5.3-6.2-8-14.7-8-25.5
			c0-10.7,2.7-19.2,8.1-25.3c5.4-6.2,12.8-9.2,22.1-9.2c9.4,0,16.8,3.1,22.1,9.3C977.2,41.8,979.9,50.3,979.9,61z M924.7,61
			c0,9.7,2.2,17.1,6.5,22.4c4.3,5.3,10.5,7.9,18.5,7.9c8.1,0,14.3-2.6,18.6-7.8c4.3-5.2,6.4-12.7,6.4-22.5c0-9.7-2.1-17.2-6.4-22.3
			c-4.3-5.2-10.5-7.8-18.5-7.8c-8,0-14.2,2.6-18.6,7.8C926.9,44,924.7,51.4,924.7,61z"/>
		<path class="st0" d="M1032.6,77.4c0,5.6-2.1,10.1-6.2,13.4c-4.1,3.3-9.6,4.9-16.5,4.9c-8.2,0-14.6-0.9-19-2.7v-4.7
			c4.9,2.1,11.1,3.1,18.6,3.1c5.5,0,9.9-1.3,13.2-3.8c3.2-2.5,4.9-5.9,4.9-10c0-2.6-0.5-4.7-1.6-6.3s-2.8-3.2-5.3-4.6
			c-2.4-1.4-6-2.9-10.7-4.5c-6.9-2.4-11.6-4.9-14.3-7.7c-2.6-2.8-3.9-6.4-3.9-11c0-5,2-9.2,5.9-12.3c4-3.2,9-4.8,15.2-4.8
			c6.3,0,12.3,1.2,17.8,3.6l-1.7,4.1c-5.6-2.3-10.9-3.5-16-3.5c-5,0-8.9,1.2-11.9,3.5c-3,2.3-4.4,5.4-4.4,9.4c0,2.5,0.5,4.5,1.4,6.1
			c0.9,1.6,2.4,3,4.5,4.3c2.1,1.3,5.6,2.8,10.6,4.6c5.3,1.8,9.2,3.6,11.9,5.3c2.6,1.7,4.6,3.6,5.8,5.8S1032.6,74.4,1032.6,77.4z"/>
		<path class="st0" d="M1084,77.4c0,5.6-2.1,10.1-6.2,13.4c-4.1,3.3-9.6,4.9-16.5,4.9c-8.2,0-14.6-0.9-19-2.7v-4.7
			c4.9,2.1,11.1,3.1,18.6,3.1c5.5,0,9.9-1.3,13.2-3.8c3.2-2.5,4.9-5.9,4.9-10c0-2.6-0.5-4.7-1.6-6.3s-2.8-3.2-5.3-4.6
			c-2.4-1.4-6-2.9-10.7-4.5c-6.9-2.4-11.6-4.9-14.3-7.7c-2.6-2.8-3.9-6.4-3.9-11c0-5,2-9.2,5.9-12.3c4-3.2,9-4.8,15.2-4.8
			c6.3,0,12.3,1.2,17.8,3.6l-1.7,4.1c-5.6-2.3-10.9-3.5-16-3.5c-5,0-8.9,1.2-11.9,3.5c-3,2.3-4.4,5.4-4.4,9.4c0,2.5,0.5,4.5,1.4,6.1
			c0.9,1.6,2.4,3,4.5,4.3c2.1,1.3,5.6,2.8,10.6,4.6c5.3,1.8,9.2,3.6,11.9,5.3c2.6,1.7,4.6,3.6,5.8,5.8S1084,74.4,1084,77.4z"/>
	</g>
	<g>
		<path class="st0" d="M486.4,232l-23-74.9h-0.6c0.8,15.2,1.2,25.4,1.2,30.5V232H446v-95.5h27.6l22.6,73h0.4l24-73h27.6V232h-18.9
			v-45.2c0-2.1,0-4.6,0.1-7.4c0.1-2.8,0.4-10.2,0.9-22.2h-0.6L505,232H486.4z"/>
		<path class="st0" d="M653.8,232h-55v-95.5h55v16.6h-34.7v21h32.3v16.6h-32.3v24.6h34.7V232z"/>
		<path class="st0" d="M779.7,183.3c0,15.7-4.5,27.8-13.4,36.1c-8.9,8.4-21.9,12.5-38.8,12.5h-27v-95.5h30
			c15.6,0,27.7,4.1,36.3,12.3C775.4,157.1,779.7,168.6,779.7,183.3z M758.7,183.9c0-20.5-9.1-30.8-27.2-30.8h-10.8v62.2h8.7
			C749,215.3,758.7,204.8,758.7,183.9z"/>
		<path class="st0" d="M826.3,232v-95.5h20.2V232H826.3z"/>
		<path class="st0" d="M952.3,232h-55v-95.5h55v16.6h-34.7v21h32.3v16.6h-32.3v24.6h34.7V232z"/>
		<path class="st0" d="M1083.7,232H1058l-41.5-72.2h-0.6c0.8,12.8,1.2,21.9,1.2,27.3V232H999v-95.5h25.5L1066,208h0.5
			c-0.7-12.4-1-21.2-1-26.3v-45.2h18.2V232z"/>
	</g>
	
		<rect x="272.8" y="125.7" transform="matrix(-1.836970e-16 1 -1 -1.836970e-16 505.6403 -246.1087)" class="st0" width="206.2" height="8.2"/>
</g>
<g id="Ebene_2" class="st1">
</g>
</svg>
