<?xml version="1.0" encoding="utf-8"?>
<!-- Generator: Adobe Illustrator 26.1.0, SVG Export Plug-In . SVG Version: 6.00 Build 0)  -->
<svg version="1.1" id="Ebene_1" xmlns="http://www.w3.org/2000/svg" xmlns:xlink="http://www.w3.org/1999/xlink" x="0px" y="0px"
	 viewBox="0 0 221.1 221.9" style="enable-background:new 0 0 221.1 221.9;" xml:space="preserve">
<style type="text/css">
	.st0{fill:#FFFFFF;}
</style>
<g>
	<path class="st0" d="M112.6,219.9c-14.6,0-28.8-2.9-42.2-8.5l1.4-3.2c12.9,5.5,26.7,8.2,40.8,8.2c0.1,0,0.1,0,0.2,0
		c57.9-0.1,104.9-47.3,104.8-105.2c0-28-11-54.4-30.9-74.2c-19.8-19.8-46.1-30.6-74.1-30.6c-0.1,0-0.1,0-0.2,0
		C59.6,6.4,14.9,46,8.4,98.3c0,0.2,0,0.6,0,0.6l-3.5,0c0,0,0-0.8,0-0.9c6.7-54.1,52.9-95,107.5-95.1c0.1,0,0.1,0,0.2,0
		c28.9,0,56.1,11.2,76.6,31.7c20.5,20.5,31.9,47.7,31.9,76.7c0.1,59.8-48.5,108.6-108.3,108.7C112.7,219.9,112.7,219.9,112.6,219.9z
		"/>
</g>
<g>
	<path class="st0" d="M117.4,145.9l5.4-62.5h-19l-5.5,62.5h-6.8c-2.4,0-4.1-1-5.3-3c-1.2-2-1.7-4.3-1.5-6.9l4.4-52.5H65.3l-0.8,9.5
		h5l-3.5,40.6c-0.7,7.1,1.2,12.6,5.7,16.4c4.1,3.6,9.6,5.4,16.7,5.4h33.8l0.8-9.5H117.4z"/>
	<path class="st0" d="M39.9,83.4l-4.2,48.4c-0.4,3.9-2.1,7.2-5.2,10c-3.1,2.8-6.7,4.2-10.6,4.2l5.5-62.6H1.3l-0.8,9.5h5L0,155.5
		c8.4,0,14.7,0,19,0c9.3-0.1,17.6-3.5,24.7-10.3c7.1-6.7,11.1-14.8,12-24.1l3.3-37.7H39.9z"/>
	<path class="st0" d="M155.8,83.4l1.6-16.7h-19l-1.4,16.7h-7.5l-0.9,9.5h7.5l-4,44.9c-0.5,5.7,1,10.1,4.4,13.2
		c3.1,2.9,7.4,4.4,12.9,4.4h6.7l0.9-9.6c-4.3-0.5-6.3-3.1-5.8-7.9l4-44.9h8.1l0.9-9.5H155.8z"/>
</g>
</svg>
