<?xml version="1.0" encoding="utf-8"?>
<!-- Generator: Adobe Illustrator 26.1.0, SVG Export Plug-In . SVG Version: 6.00 Build 0)  -->
<svg version="1.1" xmlns="http://www.w3.org/2000/svg" xmlns:xlink="http://www.w3.org/1999/xlink" x="0px" y="0px"
	 viewBox="0 0 80.5 23.1" style="enable-background:new 0 0 80.5 23.1;" xml:space="preserve">
<style type="text/css">
	.st0{display:none;}
	.st1{display:inline;fill:#020202;}
	.st2{fill:#FFFFFF;}
</style>
<g id="Ebene_2" class="st0">
	<rect class="st1" width="80.5" height="23.1"/>
</g>
<g id="Ebene_1">
	<g>
		<path class="st2" d="M50.3,1.5v2.8v1.1l1.1,0L79,4.1v11.7c0,0.5-0.2,2.3-3.1,2.4c-7.8,0.4-23.3,1.1-27.4,1.3v-2.9v-1.1l-1.1,0
			L1.9,17.7V7c0-1.9,2.2-3.3,3.6-3.4C15.5,3.2,44.3,1.8,50.3,1.5 M51.3,0.5c0,0-34.6,1.6-45.8,2.1C3.5,2.7,0.9,4.5,0.9,7
			c0,3.7,0,11.8,0,11.8l46.6-2.1v3.9c0,0,19.4-0.9,28.5-1.3c3.4-0.2,4.1-2.4,4.1-3.4c0-5.2,0-12.7,0-12.7L51.3,4.4V0.5L51.3,0.5z"/>
		<g>
			<g id="fresh_00000023240327247643615470000000383579671220478868_">
				<g>
					<path class="st2" d="M4.1,14.6c0-1.6,0-3.2,0-4.7c0.1-0.5,0.2-1,0.5-1.4c0.5-0.9,1.4-1.6,2.3-2.1c1.4-0.6,3-0.3,4.5-0.5
						c0,0.6,0,1.2,0,1.8c-1,0-2,0.1-3.1,0.1C8.1,7.7,7.8,7.8,7.6,8c-0.8,0.5-1.5,1.3-1.5,2.2c0,1.4,0,2.9,0,4.3
						C5.4,14.5,4.8,14.5,4.1,14.6z M10.9,11c-1.2,0.1-2.5,0.1-3.7,0.2c0-0.7,0-1.3,0-2c1.2-0.1,2.5-0.1,3.7-0.2
						C10.9,9.7,10.9,10.4,10.9,11z"/>
					<path class="st2" d="M18.8,12.8c-0.2-0.6-0.7-1.4-1.4-1.4c-0.8,0-1.6,0.1-2.3,0.1c0-0.7,0-1.3,0-2c1-0.1,3.6,0.2,3.7-1.2
						c0-0.2-0.1-0.4-0.2-0.5c-1.1-0.7-2.9-0.3-4.2-0.3c0,2.2,0,4.4,0,6.6c-0.7,0-1.3,0.1-2,0.1c0-2.8,0-5.6,0-8.4
						c1.4-0.1,2.8-0.1,4.2-0.2c1.3,0,2.9-0.1,3.8,1.1c0.5,0.8,0.5,2,0.1,2.8c-0.2,0.3-0.5,0.6-0.8,0.8c1.2,0.9,1.1,2.1,1.1,3.4
						c-0.7,0-1.3,0.1-2,0.1C18.8,13.5,18.8,13.2,18.8,12.8z"/>
					<path class="st2" d="M26,13.5c-1.5,0-2.9-0.8-3.7-2.1c-0.5-0.7-0.5-1.6-0.5-2.4c0.2-1.6,1.4-2.9,2.8-3.5
						c1.5-0.6,3.1-0.3,4.7-0.5c0,0.6,0,1.2,0,1.8c-1.1,0.1-2.2,0.1-3.2,0.2c-0.3,0-0.5,0.1-0.7,0.3c-0.8,0.5-1.4,1.3-1.5,2.2
						c-0.1,1,0.7,1.8,1.5,2.2c0.2,0.1,0.5,0.2,0.7,0.2c1.1-0.1,2.2-0.1,3.2-0.2c0,0.6,0,1.2,0,1.8C28.2,13.4,27.1,13.5,26,13.5z
						 M28.8,10.2c-1.3,0.1-2.6,0.1-3.9,0.2c0-0.7,0-1.3,0-2c1.3-0.1,2.6-0.1,3.9-0.2C28.8,8.9,28.8,9.5,28.8,10.2z"/>
					<path class="st2" d="M30.3,13.3c0-0.6,0-1.2,0-1.8c1.8-0.1,3.7,0,5.4-0.4c0.2-0.1,0.4-0.1,0.6-0.2c0.4-0.3,0.2-0.9-0.3-1
						c-1.4-0.2-3,0.2-4.4-0.3c-0.4-0.1-0.7-0.4-1-0.7c-0.6-0.8-0.5-2,0-2.9C31.1,5.4,32,5,32.9,4.9c1.9-0.2,3.8-0.2,5.6-0.3
						c0,0.6,0,1.2,0,1.8c-1.8,0.1-3.7,0-5.4,0.4c-0.2,0.1-0.4,0.1-0.6,0.2c-0.4,0.3-0.2,0.9,0.3,1c1.5,0.2,3-0.2,4.4,0.3
						c0.4,0.1,0.7,0.4,1,0.7c0.6,0.8,0.5,2,0,2.9c-0.5,0.8-1.4,1.1-2.2,1.2C34.1,13.2,32.2,13.2,30.3,13.3z"/>
					<path class="st2" d="M39.7,4.5c0.7,0,1.3-0.1,2-0.1c0,2.8,0,5.6,0,8.4c-0.7,0-1.3,0.1-2,0.1C39.7,10.1,39.7,7.3,39.7,4.5z
						 M46.1,10c-1.2,0.1-2.5,0.1-3.7,0.2c0-0.7,0-1.3,0-2c1.2-0.1,2.5-0.1,3.7-0.2c0-1.3,0-2.6,0-3.8c0.7,0,1.3-0.1,2-0.1
						c0,2.8,0,5.6,0,8.4c-0.7,0-1.3,0.1-2,0.1C46.1,11.7,46.1,10.9,46.1,10z"/>
				</g>
			</g>
			<g id="life_00000013180259390721096210000000267919462627377802_">
				<g>
					<path class="st2" d="M52.2,8c0.7,0,1.3-0.1,2-0.1c0,2.2,0,4.4,0,6.6c1.4-0.1,2.9-0.1,4.3-0.2c0,0.6,0,1.2,0,1.8
						c-2.1,0.1-4.2,0.2-6.3,0.3C52.2,13.6,52.2,10.8,52.2,8z"/>
					<path class="st2" d="M59.5,16.1c0-2.8,0-5.6,0-8.4c0.7,0,1.3-0.1,2-0.1c0,2.8,0,5.6,0,8.4C60.9,16,60.2,16,59.5,16.1z"/>
					<path class="st2" d="M64.5,15.8c-0.7,0-1.3,0.1-2,0.1c0-1.6,0-3.2,0-4.7c0.1-0.5,0.2-1,0.5-1.4c0.5-0.9,1.4-1.6,2.3-2.1
						c1.4-0.6,3-0.3,4.5-0.5c0,0.6,0,1.2,0,1.8c-1,0-2,0.1-3,0.1c-0.3,0-0.5,0.1-0.7,0.2c-0.8,0.5-1.5,1.3-1.5,2.2
						C64.5,12.9,64.5,14.4,64.5,15.8z M69.3,10.4c0,0.7,0,1.3,0,2c-1.2,0.1-2.5,0.1-3.7,0.2c0-0.7,0-1.3,0-2
						C66.9,10.5,68.1,10.4,69.3,10.4z"/>
					<path class="st2" d="M77.9,13.4c-0.1,1.9-1.8,1.9-3.3,1.9c-1,0-2-0.4-2.7-1c-1.2-1-1.6-2.1-1.5-3.6c0.1-1.1,0.7-2,1.5-2.7
						c1.7-1.6,3.9-1.2,6-1.4c0,0.6,0,1.2,0,1.8c-1.1,0.1-2.2,0.1-3.2,0.2c-0.3,0-0.5,0.1-0.7,0.3c-0.8,0.5-1.4,1.3-1.5,2.2
						c-0.1,1,0.7,1.8,1.5,2.2c0.2,0.1,0.5,0.2,0.7,0.2C75.7,13.5,76.8,13.5,77.9,13.4L77.9,13.4z M77.4,10c0,0.7,0,1.3,0,2
						c-1.3,0.1-2.6,0.1-3.9,0.2c0-0.7,0-1.3,0-2C74.8,10.1,76.1,10.1,77.4,10z"/>
				</g>
			</g>
		</g>
		<g>
			<path class="st2" d="M26.6,19.1c0-0.1-0.1-0.2-0.2-0.2c-0.1-0.1-0.1-0.1-0.2-0.1c-0.1,0-0.2,0-0.3,0c-0.1,0-0.3,0.1-0.4,0.1
				c-0.1,0.1-0.2,0.2-0.2,0.3c-0.1,0.1-0.1,0.2-0.1,0.4c0,0.1,0,0.3,0,0.5c0,0.1,0,0.2,0.1,0.3c0,0.1,0.1,0.2,0.2,0.2
				c0.1,0.1,0.1,0.1,0.2,0.1c0.1,0,0.2,0,0.3,0c0.1,0,0.3-0.1,0.4-0.1c0.1-0.1,0.2-0.2,0.2-0.3c0.1-0.1,0.1-0.2,0.1-0.4
				c0-0.1,0-0.3,0-0.5C26.6,19.3,26.6,19.2,26.6,19.1z"/>
			<path class="st2" d="M7.8,19.7c0,0-0.1-0.1-0.1-0.1c0,0-0.1,0-0.1-0.1c-0.1,0-0.1,0-0.2,0l-0.2,0l0,0.9l0.2,0
				c0.1,0,0.2,0,0.2-0.1c0.1,0,0.1-0.1,0.1-0.1c0-0.1,0.1-0.1,0.1-0.2c0-0.1,0-0.1,0-0.2C7.8,19.8,7.8,19.8,7.8,19.7z"/>
			<path class="st2" d="M32.6,18.5c0,0-0.1-0.1-0.1-0.1c0,0-0.1,0-0.1-0.1c-0.1,0-0.1,0-0.2,0l-0.2,0l0,0.9l0.2,0
				c0.1,0,0.2,0,0.2-0.1c0.1,0,0.1-0.1,0.1-0.1c0-0.1,0.1-0.1,0.1-0.2c0-0.1,0-0.1,0-0.2C32.7,18.6,32.7,18.6,32.6,18.5z"/>
			<path class="st2" d="M4.8,18.6v4.1l42.7-2.1v-4L4.8,18.6z M8.1,22c-0.1,0-0.1,0-0.1,0s-0.1,0-0.1-0.1L7.5,21c0,0,0-0.1-0.1-0.1
				c0,0-0.1,0-0.1,0l-0.1,0v1.1l-0.7,0.1l0-3l0.9-0.1c0.2,0,0.3,0,0.5,0c0.1,0,0.2,0.1,0.3,0.1c0.1,0.1,0.2,0.1,0.2,0.2
				c0,0.1,0.1,0.2,0.1,0.3c0,0.1,0,0.2,0,0.3c0,0.1,0,0.2-0.1,0.3c0,0.1-0.1,0.2-0.2,0.2c-0.1,0.1-0.2,0.1-0.3,0.2
				c0,0,0.1,0,0.1,0.1c0,0,0.1,0.1,0.1,0.1l0.6,1L8.1,22z M14.4,21.7l-1.8,0.2l0-3l1.7-0.2l0,0.5l-1.1,0.1l0,0.7l0.8-0.1l0,0.5
				l-0.8,0.1l0,0.7l1.1-0.1L14.4,21.7z M19.1,20.2c0,0.1,0,0.2,0.1,0.3c0,0.1,0.1,0.2,0.2,0.2c0.1,0.1,0.1,0.1,0.2,0.1
				c0.1,0,0.2,0,0.2,0c0.1,0,0.1,0,0.2,0c0.1,0,0.1,0,0.1-0.1s0.1,0,0.1-0.1c0,0,0,0,0.1-0.1c0,0,0,0,0.1-0.1c0,0,0,0,0.1,0
				c0,0,0,0,0.1,0c0,0,0,0,0,0l0.3,0.2c-0.1,0.2-0.2,0.3-0.4,0.4c-0.2,0.1-0.4,0.2-0.6,0.2c-0.2,0-0.4,0-0.5,0
				c-0.2,0-0.3-0.1-0.4-0.2c-0.1-0.1-0.2-0.2-0.3-0.4c-0.1-0.1-0.1-0.3-0.1-0.5c0-0.2,0-0.3,0-0.5c0-0.2,0.1-0.3,0.1-0.4
				c0.1-0.1,0.1-0.3,0.2-0.4c0.1-0.1,0.2-0.2,0.3-0.3c0.1-0.1,0.2-0.2,0.4-0.2c0.1-0.1,0.3-0.1,0.4-0.1c0.1,0,0.2,0,0.3,0
				c0.1,0,0.2,0,0.3,0.1c0.1,0,0.1,0.1,0.2,0.1c0.1,0,0.1,0.1,0.2,0.2l-0.2,0.3c0,0,0,0-0.1,0.1c0,0,0,0-0.1,0c0,0,0,0-0.1,0
				c0,0,0,0-0.1,0c0,0,0,0-0.1,0c0,0-0.1,0-0.1,0c0,0-0.1,0-0.1,0c0,0-0.1,0-0.2,0c-0.1,0-0.2,0.1-0.3,0.1c-0.1,0.1-0.2,0.2-0.3,0.3
				c-0.1,0.1-0.1,0.2-0.1,0.4C19,19.9,19,20.1,19.1,20.2z M27.3,19.8c0,0.1-0.1,0.3-0.1,0.4c-0.1,0.1-0.1,0.3-0.2,0.4
				c-0.1,0.1-0.2,0.2-0.3,0.3c-0.1,0.1-0.2,0.2-0.4,0.2c-0.1,0.1-0.3,0.1-0.4,0.1c-0.2,0-0.4,0-0.5,0c-0.2,0-0.3-0.1-0.4-0.2
				c-0.1-0.1-0.2-0.2-0.3-0.4c-0.1-0.2-0.1-0.3-0.1-0.5c0-0.2,0-0.3,0-0.5c0-0.1,0.1-0.3,0.1-0.4c0.1-0.1,0.1-0.3,0.2-0.4
				c0.1-0.1,0.2-0.2,0.3-0.3c0.1-0.1,0.2-0.2,0.4-0.2c0.1-0.1,0.3-0.1,0.4-0.1c0.2,0,0.4,0,0.5,0c0.2,0,0.3,0.1,0.4,0.2
				c0.1,0.1,0.2,0.2,0.3,0.4c0.1,0.2,0.1,0.3,0.1,0.5C27.3,19.5,27.3,19.6,27.3,19.8z M33,20.8c-0.1,0-0.1,0-0.1,0
				c0,0-0.1,0-0.1-0.1l-0.4-0.8c0,0,0-0.1-0.1-0.1c0,0-0.1,0-0.1,0l-0.1,0v1.1L31.3,21l0-3l0.9-0.1c0.2,0,0.3,0,0.5,0
				c0.1,0,0.2,0.1,0.3,0.1c0.1,0.1,0.2,0.1,0.2,0.2c0,0.1,0.1,0.2,0.1,0.3c0,0.1,0,0.2,0,0.3c0,0.1,0,0.2-0.1,0.3
				c0,0.1-0.1,0.2-0.2,0.2c-0.1,0.1-0.2,0.1-0.3,0.2c0,0,0.1,0,0.1,0.1c0,0,0.1,0.1,0.1,0.1l0.6,1L33,20.8z M40,19.1
				c0,0.1-0.1,0.3-0.1,0.4c-0.1,0.1-0.1,0.3-0.2,0.4c-0.1,0.1-0.2,0.2-0.3,0.3c-0.1,0.1-0.2,0.2-0.4,0.2c-0.1,0.1-0.3,0.1-0.4,0.1
				l-1.1,0.1l0-3l1.1-0.1c0.2,0,0.4,0,0.5,0c0.2,0,0.3,0.1,0.4,0.2c0.1,0.1,0.2,0.2,0.3,0.4c0.1,0.1,0.1,0.3,0.1,0.5
				C40,18.8,40,19,40,19.1z M45.7,19.5c0,0.1-0.1,0.3-0.2,0.4c-0.1,0.1-0.2,0.2-0.3,0.3c-0.1,0.1-0.3,0.1-0.4,0.1
				c-0.1,0-0.2,0-0.3,0c-0.1,0-0.2,0-0.3,0c-0.1,0-0.2-0.1-0.2-0.1c-0.1,0-0.1-0.1-0.2-0.1l0.2-0.3c0,0,0,0,0.1-0.1c0,0,0.1,0,0.1,0
				c0,0,0.1,0,0.1,0c0,0,0.1,0,0.1,0.1c0,0,0.1,0,0.2,0.1s0.1,0,0.2,0c0.1,0,0.2-0.1,0.3-0.1c0.1-0.1,0.1-0.2,0.1-0.3
				c0-0.1,0-0.1-0.1-0.1c0,0-0.1-0.1-0.1-0.1c-0.1,0-0.1,0-0.2-0.1c-0.1,0-0.1,0-0.2,0c-0.1,0-0.1,0-0.2-0.1c-0.1,0-0.1-0.1-0.2-0.1
				c-0.1,0-0.1-0.1-0.1-0.2c0-0.1-0.1-0.2-0.1-0.3c0-0.1,0-0.3,0-0.4c0-0.1,0.1-0.2,0.2-0.3c0.1-0.1,0.2-0.2,0.3-0.3
				c0.1-0.1,0.3-0.1,0.4-0.1c0.1,0,0.2,0,0.2,0c0.1,0,0.2,0,0.2,0c0.1,0,0.1,0.1,0.2,0.1c0.1,0,0.1,0.1,0.2,0.1l-0.2,0.3
				c0,0,0,0.1-0.1,0.1c0,0,0,0-0.1,0c0,0-0.1,0-0.1,0c0,0-0.1,0-0.1-0.1c0,0-0.1,0-0.1-0.1c-0.1,0-0.1,0-0.2,0c-0.1,0-0.1,0-0.2,0
				c0,0-0.1,0.1-0.1,0.1c0,0,0,0.1-0.1,0.1c0,0,0,0.1,0,0.1c0,0.1,0,0.1,0.1,0.1c0,0,0.1,0.1,0.1,0.1c0.1,0,0.1,0,0.2,0.1
				c0.1,0,0.1,0,0.2,0.1c0.1,0,0.1,0,0.2,0.1c0.1,0,0.1,0.1,0.2,0.1c0.1,0,0.1,0.1,0.1,0.2c0,0.1,0.1,0.2,0.1,0.3
				C45.8,19.2,45.8,19.3,45.7,19.5z"/>
			<path class="st2" d="M39.3,18.4c0-0.1-0.1-0.2-0.2-0.2c-0.1-0.1-0.1-0.1-0.2-0.1c-0.1,0-0.2,0-0.3,0l-0.4,0l0,2l0.4,0
				c0.1,0,0.3-0.1,0.4-0.1c0.1-0.1,0.2-0.2,0.2-0.3c0.1-0.1,0.1-0.2,0.1-0.4c0-0.1,0-0.3,0-0.5C39.3,18.6,39.3,18.5,39.3,18.4z"/>
		</g>
	</g>
</g>
</svg>
